<svg xmlns="http://www.w3.org/2000/svg" viewBox="0 0 512 512" role="img" aria-label="UX Speak">
  <rect width="512" height="512" rx="96" fill="#0d6efd"/>
  <path
    fill="#ffffff"
    d="M256 96c-61.9 0-112 43.6-112 97.3 0 34.8 20.8 65.4 52.4 82.8v86.6c0 8.8 7.2 16 16 16h87.2c8.8 0 16-7.2 16-16v-86.6c31.6-17.4 52.4-48 52.4-82.8C368 139.6 317.9 96 256 96zm0 32c38.7 0 70 29.2 70 65.3S294.7 258.6 256 258.6 186 229.4 186 193.3 217.3 128 256 128z"
  />
  <rect x="176" y="336" width="160" height="24" rx="12" fill="#ffffff" opacity="0.9"/>
  <rect x="208" y="376" width="96" height="24" rx="12" fill="#ffffff" opacity="0.75"/>
</svg>
